<svg width="59" height="18" viewBox="0 0 59 18" fill="none" xmlns="http://www.w3.org/2000/svg">
<path d="M55.5004 3.85191C55.024 1.74967 53.1557 0.257324 51.0001 0.257324C49.8858 0.257324 49.0287 0.600181 48.5144 1.71447L42.87 14.5865C42.2174 16.0746 43.3076 17.743 44.9325 17.743H45.0771C45.9107 17.743 46.5802 17.4392 46.8852 16.6634C47.2063 15.8469 48.077 15.0859 48.9545 15.0859C49.9751 15.0859 51.3104 15.0859 52.2963 15.0859C53.052 15.0859 53.7558 15.803 53.923 16.54C54.0992 17.3164 54.7395 17.6573 55.5356 17.6573H55.9172C57.3065 17.6573 58.3365 16.3678 58.0294 15.0128L55.5004 3.85191ZM48.8573 11.5002C48.8573 11.4908 48.8588 11.4823 48.8624 11.4736C49.159 10.7599 49.9255 8.75364 50.3831 7.54935C50.4564 7.35658 50.9722 6.06316 51.0429 5.86944C51.1089 5.68872 51.4598 5.49737 51.5015 5.68516L51.6857 6.51404C51.6858 6.51433 51.6858 6.5142 51.6858 6.51448C51.6871 6.52002 52.0312 8.05313 52.3412 9.45443C52.5833 10.5489 51.7544 11.5716 50.6335 11.5716H48.9287C48.8892 11.5716 48.8573 11.5396 48.8573 11.5002Z" fill="#3362AB"/>
<path d="M41.8285 12C41.8285 15.6 38.5714 18 33.5142 18C32.1007 18 30.7245 17.8135 29.6316 17.539C28.7665 17.3216 28.3063 16.4455 28.4592 15.5667L28.7738 13.7574C28.8309 13.4292 29.1794 13.2402 29.4857 13.3714C31.0285 14.0571 32.0571 14.3143 33.9428 14.3143C35.3142 14.3143 36.7714 13.8 36.7714 12.6C36.7714 11.8286 36.1714 11.3143 34.2857 10.4571C32.4857 9.6 30.0857 8.22857 30.0857 5.74286C30.0857 2.31429 33.4285 0 38.1428 0C39.3812 0 40.4978 0.162283 41.3811 0.403112C42.0116 0.574997 42.3466 1.22202 42.2297 1.86492L41.8211 4.11213C41.788 4.29418 41.5641 4.36413 41.4332 4.23329C41.4113 4.21133 41.3853 4.19409 41.3564 4.18266C40.5051 3.84568 39.4011 3.51429 37.7999 3.51429C35.9999 3.6 35.1428 4.37143 35.1428 5.05714C35.1428 5.82857 36.1714 6.42857 37.7999 7.2C40.5428 8.48571 41.8285 9.94286 41.8285 12Z" fill="#3362AB"/>
<path d="M0.194661 0.476222C0.0881313 0.449749 0.0217327 0.341864 0.0483559 0.235371C0.0703117 0.147548 0.149221 0.0859375 0.239747 0.0859375H7.45714C8.48571 0.0859375 9.25714 0.428795 9.51429 1.54308C9.68315 2.34298 6.95538 3.65856 6.28779 3.18666C4.60913 2.00008 2.57392 1.06748 0.194661 0.476222Z" fill="#F9B50B"/>
<path d="M21.5144 0.242504C21.5144 0.252135 21.5124 0.261666 21.5086 0.270518L14.9904 15.4797C14.4243 16.8006 13.1254 17.6571 11.6882 17.6571C10.0945 17.6571 8.69126 16.6071 8.24156 15.0782L7.50317 12.5676C6.5381 9.28642 9.93691 7.15512 11.3144 10.2857C11.4801 10.8658 12.2881 10.9031 12.5065 10.3407L15.7132 2.0866C16.1617 0.932024 17.2732 0.171387 18.5119 0.171387H21.4432C21.4825 0.171387 21.5144 0.203227 21.5144 0.242504Z" fill="#3362AB"/>
<path d="M23.1547 2.10174C23.346 0.986545 24.3129 0.171387 25.4444 0.171387C26.8845 0.171387 27.9777 1.46809 27.7341 2.88743L25.5313 15.7268C25.34 16.8419 24.3731 17.6571 23.2416 17.6571C21.8015 17.6571 20.7083 16.3604 20.9518 14.9411L23.1547 2.10174Z" fill="#3362AB"/>
</svg>
